<?xml version="1.0" encoding="UTF-8" standalone="no"?>
<!-- Created with Inkscape (http://www.inkscape.org/) -->

<svg
   xmlns:dc="http://purl.org/dc/elements/1.1/"
   xmlns:cc="http://creativecommons.org/ns#"
   xmlns:rdf="http://www.w3.org/1999/02/22-rdf-syntax-ns#"
   xmlns:svg="http://www.w3.org/2000/svg"
   xmlns="http://www.w3.org/2000/svg"
   xmlns:sodipodi="http://sodipodi.sourceforge.net/DTD/sodipodi-0.dtd"
   xmlns:inkscape="http://www.inkscape.org/namespaces/inkscape"
   version="1.1"
   id="svg96"
   width="69"
   height="68.949341"
   viewBox="0 0 69 68.949341"
   sodipodi:docname="play-img.svg"
   inkscape:version="0.92.4 (unknown)">
  <path
     d="M 21.010934,66.788828 C 17.324223,65.373696 13.683642,62.843642 9.923562,59.083561 2.7819,51.9419 0,45.050321 0,34.5 0,23.951507 2.782139,17.057861 9.92,9.92 17.057861,2.7821387 23.951507,0 34.5,0 45.048493,0 51.942139,2.7821387 59.08,9.92 66.217861,17.057861 69,23.951507 69,34.5 69,45.048493 66.217861,51.942139 59.08,59.08 51.829502,66.330498 45.049056,69.021106 34.212487,68.947894 28.876525,68.911844 24.8086,68.24655 21.010934,66.788828 Z M 45.681495,63.84621 C 53.44894,60.940036 60.940036,53.44894 63.84621,45.681495 73.320107,20.360237 48.639763,-4.3201065 23.318505,5.1537902 15.55106,8.0599639 8.059964,15.55106 5.153791,23.318505 -4.321642,48.643867 20.356133,73.321642 45.681495,63.84621 Z M 24.5,61.227283 C 17.516363,58.923644 9.995701,51.265092 7.715621,44.135165 c -3.613533,-11.299704 -1.255608,-21.663936 6.75,-29.669544 11.328967,-11.328967 28.739791,-11.328967 40.068758,0 11.328967,11.328967 11.328967,28.739791 0,40.068758 C 46.545851,62.522907 35.732697,64.932526 24.5,61.227283 Z M 46,34.5 c 0,-0.154786 -4.05,-3.055328 -9,-6.445648 L 28,21.890133 V 34.5 47.109867 l 9,-6.164219 C 41.95,37.555328 46,34.654786 46,34.5 Z"
     id="path106"
     inkscape:connector-curvature="0" />
</svg>
