<?xml version="1.0" encoding="UTF-8" standalone="no"?>
<!-- Created with Inkscape (http://www.inkscape.org/) -->

<svg
   xmlns:dc="http://purl.org/dc/elements/1.1/"
   xmlns:cc="http://creativecommons.org/ns#"
   xmlns:rdf="http://www.w3.org/1999/02/22-rdf-syntax-ns#"
   xmlns:svg="http://www.w3.org/2000/svg"
   xmlns="http://www.w3.org/2000/svg"
   xmlns:sodipodi="http://sodipodi.sourceforge.net/DTD/sodipodi-0.dtd"
   xmlns:inkscape="http://www.inkscape.org/namespaces/inkscape"
   version="1.1"
   id="svg306"
   width="266.58072"
   height="169.76448"
   viewBox="0 0 266.58072 169.76448"
   sodipodi:docname="bl-link.svg"
   inkscape:version="0.92.4 (unknown)">
  <path
     style="stroke-width:1.33333325"
     d="m 5.50205,166.28876 c -2.98769,-2.3786 -5.29788,-5.22472 -5.13377,-6.32472 0.16411,-1.1 6.02558,-7.4 13.02549,-14 26.5019,-24.98785 60.28007,-56.041069 62.0739,-57.066262 3.79724,-2.170175 1.7365,-6.213439 -7.0594,-13.850849 C 63.49949,70.784669 52.84949,60.993238 44.74161,53.288195 36.63372,45.583151 26.7,36.359675 22.66667,32.791583 9.67227,21.296073 0,11.807002 0,10.55423 0,8.9518972 9.5993,0.04668709 11.37672,1.0989479e-4 12.8837,-0.03938011 25.02486,10.566765 42.66667,27.334047 c 9.66175,9.182807 28.03252,26.193449 55,50.927932 3.48333,3.194902 6.29438,6.53487 6.24678,7.42215 -0.0476,0.88728 -4.61692,5.513236 -10.15405,10.279902 C 88.22228,100.73069 77.59535,110.3307 70.144,117.29737 43.54446,142.16669 14.54624,168.59209 12.75526,169.59437 11.60161,170.24 8.9434,169.02853 5.50205,166.28876 Z m 162.66667,0 c -2.9877,-2.3786 -5.2979,-5.22472 -5.13378,-6.32472 0.16411,-1.1 6.02559,-7.4 13.02548,-14 26.50191,-24.98785 60.28008,-56.041069 62.07391,-57.066262 3.79724,-2.170175 1.7365,-6.213439 -7.0594,-13.850849 -4.90879,-4.26226 -15.55879,-14.053691 -23.66667,-21.758734 -8.10788,-7.705044 -18.0416,-16.92852 -22.07493,-20.496612 -12.9944,-11.49551 -22.66667,-20.984581 -22.66667,-22.237353 0,-1.6023328 9.5993,-10.50754291 11.37672,-10.55412010521 C 175.55036,-0.03938011 187.69152,10.566765 205.33333,27.334047 c 9.66174,9.182807 28.03252,26.193449 55,50.927932 3.48333,3.194902 6.29438,6.53487 6.24678,7.42215 -0.0476,0.88728 -4.61693,5.513236 -10.15405,10.279902 -5.53712,4.766659 -16.16405,14.366669 -23.61541,21.333339 -26.59954,24.86932 -55.59775,51.29472 -57.38873,52.297 -1.15366,0.64563 -3.81186,-0.56584 -7.2532,-3.30561 z"
     id="path316"
     inkscape:connector-curvature="0" />
</svg>
